REM DIRINDEX 1\2,1\3,1\4,1\5\6,1\5\7,1\8
REM DIRNAME folder01,folder02,folder03,folder04,folder05,folder06,folder07,folder08
TITLE ""
FILE "145 【145】Unit8 (1645 escalate_1656 dependency).mp3" MP3
  TRACK 01 AUDIO
    TITLE "0:"
    INDEX 01 00:00:00
  TRACK 02 AUDIO
    TITLE "2:cjc115_5648"
    INDEX 01 00:00:03
  TRACK 03 AUDIO
    TITLE "0:"
    INDEX 01 00:01:21
  TRACK 04 AUDIO
    TITLE "3:cjc115_5649"
    INDEX 01 00:01:26
  TRACK 05 AUDIO
    TITLE "0:"
    INDEX 01 00:03:49
  TRACK 06 AUDIO
    TITLE "4:cjc115_5650"
    INDEX 01 00:03:55
  TRACK 07 AUDIO
    TITLE "0:"
    INDEX 01 00:07:58
  TRACK 08 AUDIO
    TITLE "2:cjc115_5651"
    INDEX 01 00:08:68
  TRACK 09 AUDIO
    TITLE "0:"
    INDEX 01 00:10:02
  TRACK 10 AUDIO
    TITLE "3:cjc115_5652"
    INDEX 01 00:10:04
  TRACK 11 AUDIO
    TITLE "0:"
    INDEX 01 00:11:13
  TRACK 12 AUDIO
    TITLE "4:cjc115_5653"
    INDEX 01 00:11:17
  TRACK 13 AUDIO
    TITLE "0:"
    INDEX 01 00:15:19
  TRACK 14 AUDIO
    TITLE "2:cjc115_5654"
    INDEX 01 00:16:30
  TRACK 15 AUDIO
    TITLE "0:"
    INDEX 01 00:17:45
  TRACK 16 AUDIO
    TITLE "3:cjc115_5655"
    INDEX 01 00:17:55
  TRACK 17 AUDIO
    TITLE "0:"
    INDEX 01 00:19:54
  TRACK 18 AUDIO
    TITLE "4:cjc115_5656"
    INDEX 01 00:19:62
  TRACK 19 AUDIO
    TITLE "0:"
    INDEX 01 00:22:32
  TRACK 20 AUDIO
    TITLE "2:cjc115_5657"
    INDEX 01 00:23:42
  TRACK 21 AUDIO
    TITLE "0:"
    INDEX 01 00:24:63
  TRACK 22 AUDIO
    TITLE "3:cjc115_5658"
    INDEX 01 00:24:69
  TRACK 23 AUDIO
    TITLE "0:"
    INDEX 01 00:27:08
  TRACK 24 AUDIO
    TITLE "4:cjc115_5659"
    INDEX 01 00:27:16
  TRACK 25 AUDIO
    TITLE "0:"
    INDEX 01 00:29:72
  TRACK 26 AUDIO
    TITLE "2:cjc115_5660"
    INDEX 01 00:31:04
  TRACK 27 AUDIO
    TITLE "0:"
    INDEX 01 00:32:11
  TRACK 28 AUDIO
    TITLE "3:cjc115_5661"
    INDEX 01 00:32:19
  TRACK 29 AUDIO
    TITLE "0:"
    INDEX 01 00:35:57
  TRACK 30 AUDIO
    TITLE "4:cjc115_5662"
    INDEX 01 00:35:68
  TRACK 31 AUDIO
    TITLE "0:"
    INDEX 01 00:39:00
  TRACK 32 AUDIO
    TITLE "2:cjc115_5663"
    INDEX 01 00:40:03
  TRACK 33 AUDIO
    TITLE "0:"
    INDEX 01 00:41:38
  TRACK 34 AUDIO
    TITLE "3:cjc115_5664"
    INDEX 01 00:41:47
  TRACK 35 AUDIO
    TITLE "0:"
    INDEX 01 00:44:03
  TRACK 36 AUDIO
    TITLE "4:cjc115_5665"
    INDEX 01 00:44:07
  TRACK 37 AUDIO
    TITLE "0:"
    INDEX 01 00:48:12
  TRACK 38 AUDIO
    TITLE "2:cjc115_5666"
    INDEX 01 00:49:20
  TRACK 39 AUDIO
    TITLE "0:"
    INDEX 01 00:50:33
  TRACK 40 AUDIO
    TITLE "3:cjc115_5667"
    INDEX 01 00:50:39
  TRACK 41 AUDIO
    TITLE "0:"
    INDEX 01 00:53:02
  TRACK 42 AUDIO
    TITLE "4:cjc115_5668"
    INDEX 01 00:53:15
  TRACK 43 AUDIO
    TITLE "0:"
    INDEX 01 00:56:14
  TRACK 44 AUDIO
    TITLE "2:cjc115_5669"
    INDEX 01 00:57:25
  TRACK 45 AUDIO
    TITLE "0:"
    INDEX 01 00:58:24
  TRACK 46 AUDIO
    TITLE "3:cjc115_5670"
    INDEX 01 00:58:32
  TRACK 47 AUDIO
    TITLE "0:"
    INDEX 01 01:00:06
  TRACK 48 AUDIO
    TITLE "4:cjc115_5671"
    INDEX 01 01:00:17
  TRACK 49 AUDIO
    TITLE "0:"
    INDEX 01 01:04:68
  TRACK 50 AUDIO
    TITLE "2:cjc115_5672"
    INDEX 01 01:06:02
  TRACK 51 AUDIO
    TITLE "0:"
    INDEX 01 01:07:23
  TRACK 52 AUDIO
    TITLE "3:cjc115_5673"
    INDEX 01 01:07:29
  TRACK 53 AUDIO
    TITLE "0:"
    INDEX 01 01:09:26
  TRACK 54 AUDIO
    TITLE "4:cjc115_5674"
    INDEX 01 01:09:34
  TRACK 55 AUDIO
    TITLE "0:"
    INDEX 01 01:13:30
  TRACK 56 AUDIO
    TITLE "2:cjc115_5675"
    INDEX 01 01:14:37
  TRACK 57 AUDIO
    TITLE "0:"
    INDEX 01 01:15:56
  TRACK 58 AUDIO
    TITLE "3:cjc115_5676"
    INDEX 01 01:15:64
  TRACK 59 AUDIO
    TITLE "0:"
    INDEX 01 01:17:22
  TRACK 60 AUDIO
    TITLE "4:cjc115_5677"
    INDEX 01 01:17:32
  TRACK 61 AUDIO
    TITLE "0:"
    INDEX 01 01:21:02
  TRACK 62 AUDIO
    TITLE "2:cjc115_5678"
    INDEX 01 01:22:07
  TRACK 63 AUDIO
    TITLE "0:"
    INDEX 01 01:23:42
  TRACK 64 AUDIO
    TITLE "3:cjc115_5679"
    INDEX 01 01:23:50
  TRACK 65 AUDIO
    TITLE "0:"
    INDEX 01 01:24:63
  TRACK 66 AUDIO
    TITLE "4:cjc115_5680"
    INDEX 01 01:24:69
  TRACK 67 AUDIO
    TITLE "0:"
    INDEX 01 01:28:49
  TRACK 68 AUDIO
    TITLE "2:cjc115_5681"
    INDEX 01 01:29:54
  TRACK 69 AUDIO
    TITLE "0:"
    INDEX 01 01:31:10
  TRACK 70 AUDIO
    TITLE "3:cjc115_5682"
    INDEX 01 01:31:16
  TRACK 71 AUDIO
    TITLE "0:"
    INDEX 01 01:32:13
  TRACK 72 AUDIO
    TITLE "4:cjc115_5683"
    INDEX 01 01:32:21
  TRACK 73 AUDIO
    TITLE "0:"
    INDEX 01 01:35:20
